<?xml version="1.0" standalone="no"?>
<!DOCTYPE svg PUBLIC "-//W3C//DTD SVG 20010904//EN"
 "http://www.w3.org/TR/2001/REC-SVG-20010904/DTD/svg10.dtd">
<svg version="1.0" xmlns="http://www.w3.org/2000/svg"
 width="282.000000pt" height="282.000000pt" viewBox="0 0 282.000000 282.000000"
 preserveAspectRatio="xMidYMid meet">
<metadata>
Created by potrace 1.14, written by Peter Selinger 2001-2017
</metadata>
<g transform="translate(0.000000,282.000000) scale(0.100000,-0.100000)"
fill="#000000" stroke="none">
<path d="M1192 2181 c-7 -4 -38 -7 -70 -6 -31 1 -73 -3 -92 -9 -31 -10 -55
-12 -70 -6 -18 7 -101 7 -105 0 -3 -5 -12 -7 -20 -3 -8 3 -15 0 -15 -7 0 -6
-4 -8 -10 -5 -5 3 -10 1 -10 -4 0 -6 -9 -11 -20 -11 -11 0 -20 -5 -20 -11 0
-5 -4 -7 -10 -4 -5 3 -10 1 -10 -6 0 -7 -3 -9 -6 -6 -4 3 -15 2 -25 -3 -12 -7
-20 -6 -25 1 -5 8 -8 8 -13 0 -4 -6 -17 -12 -30 -14 -12 -2 -27 -10 -32 -18
-5 -8 -9 -11 -9 -6 0 4 -9 -2 -20 -13 -11 -11 -27 -21 -35 -21 -17 -2 -34 -5
-37 -9 -3 -1 -17 -5 -51 -13 -23 -5 -67 -39 -67 -52 0 -8 -10 -17 -22 -21 -22
-6 -66 -44 -52 -44 4 0 -6 -12 -22 -27 -16 -15 -28 -31 -27 -35 2 -4 -4 -8
-13 -8 -8 0 -12 -4 -9 -10 3 -5 1 -10 -5 -10 -6 0 -8 -4 -5 -10 3 -5 -1 -10
-9 -10 -8 0 -17 -9 -21 -20 -3 -11 -11 -19 -17 -17 -6 1 -12 -7 -14 -18 -3
-11 -7 -29 -9 -40 -2 -11 -5 -29 -7 -40 -2 -11 -7 -23 -11 -26 -5 -4 -10 -25
-10 -48 -1 -22 -5 -41 -9 -41 -3 0 0 -13 8 -30 9 -16 14 -42 12 -57 -3 -29
-28 -63 -40 -56 -4 2 -6 -9 -4 -24 1 -16 -1 -36 -6 -45 -6 -12 -5 -18 2 -18 7
0 8 -6 1 -19 -6 -10 -8 -21 -4 -24 6 -7 -21 -37 -34 -37 -15 0 -40 -36 -37
-53 1 -9 -2 -17 -7 -17 -5 0 -9 -9 -9 -20 0 -13 7 -20 20 -20 16 0 20 -7 21
-32 1 -38 2 -44 13 -80 5 -16 12 -28 17 -28 5 0 8 -3 8 -7 -4 -26 6 -45 43
-86 23 -26 48 -47 55 -47 7 0 13 -4 13 -8 0 -7 136 -73 160 -78 41 -9 70 -18
70 -23 0 -3 11 -7 25 -7 14 -1 33 -5 43 -9 21 -10 39 -14 70 -17 12 -1 22 -5
22 -8 0 -3 16 -5 35 -4 19 1 37 -2 40 -7 3 -4 12 -6 20 -2 9 3 22 0 29 -6 10
-9 16 -9 21 -1 4 6 12 7 18 2 7 -4 24 -8 40 -7 15 0 27 -3 27 -8 0 -5 7 -4 15
3 8 7 15 8 15 4 0 -5 15 -10 33 -11 17 -1 68 -5 112 -9 135 -13 980 -7 980 7
0 1 14 2 30 4 50 5 128 15 160 21 17 3 39 7 50 9 11 1 43 8 70 15 28 6 55 13
60 14 6 1 16 5 23 9 6 5 17 5 22 2 6 -3 10 -2 10 4 0 6 7 8 15 5 8 -4 15 -1
15 6 0 6 4 9 8 6 5 -3 19 1 33 8 13 7 27 13 31 15 51 16 143 74 160 101 7 11
19 20 26 20 7 0 10 5 7 10 -3 6 -2 10 3 10 9 0 25 37 23 53 -1 4 3 7 9 7 6 0
9 3 9 8 -1 4 0 9 1 12 6 16 10 52 11 107 1 64 12 79 47 66 14 -6 15 -4 5 9 -7
8 -10 18 -6 21 3 4 0 7 -8 7 -13 0 -63 68 -65 88 -2 22 -43 73 -76 93 -21 13
-38 29 -38 36 0 6 -5 13 -11 15 -11 4 8 58 20 58 16 0 -4 182 -20 188 -5 2 -9
12 -9 22 0 10 -4 22 -10 25 -5 3 -10 15 -10 26 0 10 -4 19 -10 19 -5 0 -10 6
-10 14 0 8 -7 17 -16 20 -8 3 -12 11 -9 16 4 6 3 9 -2 8 -4 -1 -28 16 -52 39
-24 23 -49 39 -54 36 -6 -3 -7 -1 -4 4 6 10 -45 48 -67 50 -5 1 -12 5 -15 10
-3 4 -23 17 -43 28 -21 11 -38 23 -38 28 0 4 -4 5 -10 2 -5 -3 -10 -1 -10 4 0
6 -9 11 -20 11 -11 0 -20 4 -20 8 0 5 -7 9 -15 10 -8 1 -22 3 -30 4 -8 1 -15
6 -15 11 0 6 -3 8 -6 4 -3 -3 -17 -2 -30 3 -24 10 -65 20 -94 24 -9 1 -21 5
-28 10 -6 4 -12 5 -12 3 0 -3 -32 3 -70 13 -40 10 -72 14 -76 9 -3 -5 -9 -7
-14 -4 -9 6 -34 11 -110 22 -19 3 -38 11 -42 17 -5 8 -8 7 -8 -2 0 -7 -5 -10
-11 -7 -5 4 -47 9 -92 12 -45 2 -95 5 -112 6 -16 1 -33 6 -37 12 -5 7 -8 7 -8
0 0 -12 -162 -15 -170 -4 -3 4 -11 4 -18 0z"/>
</g>
</svg>
